<mxfile host="app.diagrams.net" agent="Mozilla/5.0 (X11; Linux x86_64) AppleWebKit/537.36 (KHTML, like Gecko) Chrome/134.0.0.0 Safari/537.36" version="26.1.3">
  <diagram name="ページ1" id="yPuSZgIgF-PfA6mKL7kJ">
    <mxGraphModel dx="398" dy="211" grid="1" gridSize="10" guides="1" tooltips="1" connect="1" arrows="1" fold="1" page="1" pageScale="1" pageWidth="827" pageHeight="1169" math="1" shadow="0">
      <root>
        <mxCell id="0" />
        <mxCell id="1" parent="0" />
        <mxCell id="ItQH0kAAVtNzD16TnXJ3-1" value="" style="shape=parallelogram;perimeter=parallelogramPerimeter;whiteSpace=wrap;html=1;fixedSize=1;size=140;rotation=15;" vertex="1" parent="1">
          <mxGeometry x="175.27" y="134" width="324.57" height="132.82" as="geometry" />
        </mxCell>
        <mxCell id="ItQH0kAAVtNzD16TnXJ3-2" value="" style="endArrow=classic;html=1;rounded=0;strokeWidth=2;exitX=0.427;exitY=0.638;exitDx=0;exitDy=0;exitPerimeter=0;" edge="1" parent="1" source="ItQH0kAAVtNzD16TnXJ3-1">
          <mxGeometry width="50" height="50" relative="1" as="geometry">
            <mxPoint x="520" y="150" as="sourcePoint" />
            <mxPoint x="290" y="50" as="targetPoint" />
          </mxGeometry>
        </mxCell>
        <mxCell id="ItQH0kAAVtNzD16TnXJ3-5" value="" style="endArrow=classic;html=1;rounded=0;strokeWidth=2;startSize=22;" edge="1" parent="1">
          <mxGeometry width="50" height="50" relative="1" as="geometry">
            <mxPoint x="395" y="135" as="sourcePoint" />
            <mxPoint x="390" y="95" as="targetPoint" />
          </mxGeometry>
        </mxCell>
        <mxCell id="ItQH0kAAVtNzD16TnXJ3-6" value="$$\mathbf{a}$$" style="text;strokeColor=none;align=center;fillColor=none;html=1;verticalAlign=middle;whiteSpace=wrap;rounded=0;fontSize=16;" vertex="1" parent="1">
          <mxGeometry x="394" y="94" width="40" height="40" as="geometry" />
        </mxCell>
        <mxCell id="ItQH0kAAVtNzD16TnXJ3-8" value="$$P$$" style="text;strokeColor=none;align=center;fillColor=none;html=1;verticalAlign=middle;whiteSpace=wrap;rounded=0;fontSize=16;" vertex="1" parent="1">
          <mxGeometry x="270" y="10" width="40" height="40" as="geometry" />
        </mxCell>
        <mxCell id="ItQH0kAAVtNzD16TnXJ3-9" value="$$P&#39;$$" style="text;strokeColor=none;align=center;fillColor=none;html=1;verticalAlign=middle;whiteSpace=wrap;rounded=0;fontSize=16;" vertex="1" parent="1">
          <mxGeometry x="290" y="210" width="40" height="40" as="geometry" />
        </mxCell>
        <mxCell id="ItQH0kAAVtNzD16TnXJ3-10" value="$$(S)$$" style="text;strokeColor=none;align=center;fillColor=none;html=1;verticalAlign=middle;whiteSpace=wrap;rounded=0;fontSize=15;" vertex="1" parent="1">
          <mxGeometry x="414" y="160" width="40" height="40" as="geometry" />
        </mxCell>
        <mxCell id="ItQH0kAAVtNzD16TnXJ3-11" value="" style="shape=waypoint;sketch=0;fillStyle=solid;size=6;pointerEvents=1;points=[];fillColor=none;resizable=0;rotatable=0;perimeter=centerPerimeter;snapToPoint=1;" vertex="1" parent="1">
          <mxGeometry x="200" y="300" width="20" height="20" as="geometry" />
        </mxCell>
        <mxCell id="ItQH0kAAVtNzD16TnXJ3-12" value="" style="endArrow=classic;html=1;rounded=0;strokeWidth=2;exitX=0.757;exitY=1.014;exitDx=0;exitDy=0;exitPerimeter=0;" edge="1" parent="1" source="ItQH0kAAVtNzD16TnXJ3-11">
          <mxGeometry width="50" height="50" relative="1" as="geometry">
            <mxPoint x="300" y="220" as="sourcePoint" />
            <mxPoint x="290" y="50" as="targetPoint" />
          </mxGeometry>
        </mxCell>
        <mxCell id="ItQH0kAAVtNzD16TnXJ3-13" value="" style="endArrow=classic;html=1;rounded=0;strokeWidth=2;entryX=0.5;entryY=0;entryDx=0;entryDy=0;" edge="1" parent="1" target="ItQH0kAAVtNzD16TnXJ3-9">
          <mxGeometry width="50" height="50" relative="1" as="geometry">
            <mxPoint x="210" y="310" as="sourcePoint" />
            <mxPoint x="350" y="170" as="targetPoint" />
          </mxGeometry>
        </mxCell>
        <mxCell id="ItQH0kAAVtNzD16TnXJ3-14" value="$$\mathbf{x_0}$$" style="text;strokeColor=none;align=center;fillColor=none;html=1;verticalAlign=middle;whiteSpace=wrap;rounded=0;fontSize=16;" vertex="1" parent="1">
          <mxGeometry x="219.99999999999997" y="120" width="40.16" height="40" as="geometry" />
        </mxCell>
        <mxCell id="ItQH0kAAVtNzD16TnXJ3-15" value="$$\mathbf{x&#39;_0}$$" style="text;strokeColor=none;align=center;fillColor=none;html=1;verticalAlign=middle;whiteSpace=wrap;rounded=0;fontSize=16;" vertex="1" parent="1">
          <mxGeometry x="249.84" y="250" width="40.16" height="40" as="geometry" />
        </mxCell>
        <mxCell id="ItQH0kAAVtNzD16TnXJ3-16" value="$$\mathbf{x_0 - x&#39;_0}$$" style="text;strokeColor=none;align=center;fillColor=none;html=1;verticalAlign=middle;whiteSpace=wrap;rounded=0;fontSize=16;" vertex="1" parent="1">
          <mxGeometry x="297.55" y="80" width="80" height="40" as="geometry" />
        </mxCell>
        <mxCell id="ItQH0kAAVtNzD16TnXJ3-18" value="" style="endArrow=none;html=1;rounded=0;" edge="1" parent="1">
          <mxGeometry width="50" height="50" relative="1" as="geometry">
            <mxPoint x="309" y="199" as="sourcePoint" />
            <mxPoint x="320" y="204" as="targetPoint" />
            <Array as="points">
              <mxPoint x="319" y="189" />
            </Array>
          </mxGeometry>
        </mxCell>
      </root>
    </mxGraphModel>
  </diagram>
</mxfile>
